<svg width="20" height="20" viewBox="0 0 20 20" fill="none" xmlns="http://www.w3.org/2000/svg">
<rect width="20" height="20" fill="#F2F2F2"/>
<rect width="1440" height="1170" transform="translate(-386 -863)" fill="#F5F8FA"/>
<g filter="url(#filter0_dd_0_1)">
<rect x="-124" y="-677" width="892" height="795" rx="6" fill="white"/>
</g>
<path fill-rule="evenodd" clip-rule="evenodd" d="M0 10C0 15.5228 4.47715 20 10 20C15.5228 20 20 15.5228 20 10C20 4.47715 15.5228 0 10 0C4.47715 0 0 4.47715 0 10ZM18 10C18 14.4183 14.4183 18 10 18C5.58172 18 2 14.4183 2 10C2 5.58172 5.58172 2 10 2C14.4183 2 18 5.58172 18 10ZM11.4142 6.58579C12.1953 7.36683 12.1953 8.63317 11.4142 9.41421L9.29333 11.5325C8.90257 11.9227 8.90217 12.5559 9.29245 12.9467C9.68273 13.3374 10.3159 13.3378 10.7067 12.9475L12.828 10.8289C14.3905 9.26633 14.3905 6.73367 12.8284 5.17157C11.2663 3.60948 8.73367 3.60948 7.17157 5.17157C6.78105 5.5621 6.78105 6.19526 7.17157 6.58579C7.5621 6.97631 8.19526 6.97631 8.58579 6.58579C9.36683 5.80474 10.6332 5.80474 11.4142 6.58579ZM10 16C10.5523 16 11 15.5523 11 15C11 14.4477 10.5523 14 10 14C9.44771 14 9 14.4477 9 15C9 15.5523 9.44771 16 10 16Z" fill="#548BC5"/>
<defs>
<filter id="filter0_dd_0_1" x="-159" y="-697" width="962" height="865" filterUnits="userSpaceOnUse" color-interpolation-filters="sRGB">
<feFlood flood-opacity="0" result="BackgroundImageFix"/>
<feColorMatrix in="SourceAlpha" type="matrix" values="0 0 0 0 0 0 0 0 0 0 0 0 0 0 0 0 0 0 127 0" result="hardAlpha"/>
<feOffset dy="5"/>
<feGaussianBlur stdDeviation="7.5"/>
<feColorMatrix type="matrix" values="0 0 0 0 0 0 0 0 0 0 0 0 0 0 0 0 0 0 0.0490829 0"/>
<feBlend mode="normal" in2="BackgroundImageFix" result="effect1_dropShadow_0_1"/>
<feColorMatrix in="SourceAlpha" type="matrix" values="0 0 0 0 0 0 0 0 0 0 0 0 0 0 0 0 0 0 127 0" result="hardAlpha"/>
<feOffset dy="15"/>
<feGaussianBlur stdDeviation="17.5"/>
<feColorMatrix type="matrix" values="0 0 0 0 0.167329 0 0 0 0 0.250381 0 0 0 0 0.306282 0 0 0 0.095505 0"/>
<feBlend mode="normal" in2="effect1_dropShadow_0_1" result="effect2_dropShadow_0_1"/>
<feBlend mode="normal" in="SourceGraphic" in2="effect2_dropShadow_0_1" result="shape"/>
</filter>
</defs>
</svg>
